<svg xmlns="http://www.w3.org/2000/svg" width="256" height="256" viewBox="0 0 100 100"><rect width="100" height="100" rx="20" fill="#eada3b"></rect><path d="M20.05 54.57L38.27 54.57L38.27 45.46Q38.27 43.59 37.56 41.92Q36.84 40.26 35.61 39.02Q34.37 37.78 32.70 37.07Q31.04 36.35 29.16 36.35L29.16 36.35Q27.29 36.35 25.63 37.07Q23.96 37.78 22.72 39.02Q21.48 40.26 20.77 41.92Q20.05 43.59 20.05 45.46L20.05 45.46L20.05 54.57ZM47.38 45.46L47.38 72.76L38.27 72.76L38.27 63.65L20.05 63.65L20.05 72.76L10.98 72.76L10.98 45.46Q10.98 41.68 12.41 38.37Q13.83 35.05 16.29 32.58Q18.75 30.10 22.07 28.67Q25.39 27.24 29.16 27.24L29.16 27.24Q32.94 27.24 36.26 28.67Q39.57 30.10 42.05 32.58Q44.53 35.05 45.95 38.37Q47.38 41.68 47.38 45.46L47.38 45.46ZM52.62 40.89L52.62 40.89Q52.62 38.07 53.70 35.59Q54.78 33.12 56.63 31.26Q58.49 29.40 60.97 28.32Q63.44 27.24 66.27 27.24L66.27 27.24L87.15 27.24L87.15 36.35L66.27 36.35Q65.31 36.35 64.49 36.70Q63.66 37.05 63.04 37.67Q62.43 38.29 62.08 39.11Q61.73 39.94 61.73 40.89L61.73 40.89Q61.73 41.84 62.08 42.68Q62.43 43.53 63.04 44.14Q63.66 44.76 64.49 45.11Q65.31 45.46 66.27 45.46L66.27 45.46L75.37 45.46Q78.20 45.46 80.69 46.52Q83.18 47.59 85.04 49.44Q86.90 51.30 87.96 53.79Q89.02 56.28 89.02 59.11L89.02 59.11Q89.02 61.93 87.96 64.41Q86.90 66.88 85.04 68.74Q83.18 70.60 80.69 71.68Q78.20 72.76 75.37 72.76L75.37 72.76L55.16 72.76L55.16 63.65L75.37 63.65Q76.33 63.65 77.15 63.30Q77.98 62.95 78.60 62.33Q79.22 61.71 79.56 60.89Q79.91 60.06 79.91 59.11L79.91 59.11Q79.91 58.16 79.56 57.33Q79.22 56.51 78.60 55.89Q77.98 55.27 77.15 54.92Q76.33 54.57 75.37 54.57L75.37 54.57L66.27 54.57Q63.44 54.57 60.97 53.49Q58.49 52.41 56.63 50.56Q54.78 48.70 53.70 46.21Q52.62 43.72 52.62 40.89Z" fill="#000"></path></svg>